<?xml version="1.0" encoding="UTF-8"?>
<svg xmlns="http://www.w3.org/2000/svg" xmlns:xlink="http://www.w3.org/1999/xlink" width="375pt" height="374.999991pt" viewBox="0 0 375 374.999991" version="1.2">
<defs>
<g>
<symbol overflow="visible" id="glyph0-0">
<path style="stroke:none;" d="M 1.71875 -28.671875 C 1.71875 -29.671875 2.222656 -30.171875 3.234375 -30.171875 L 21.9375 -30.171875 C 22.945312 -30.171875 23.453125 -29.671875 23.453125 -28.671875 L 23.453125 -1.515625 C 23.453125 -0.503906 22.945312 0 21.9375 0 L 3.234375 0 C 2.222656 0 1.71875 -0.503906 1.71875 -1.515625 Z M 4.09375 -28.890625 C 3.894531 -28.890625 3.851562 -28.800781 3.96875 -28.625 L 21.90625 -2.796875 C 21.957031 -2.710938 22.007812 -2.675781 22.0625 -2.6875 C 22.125 -2.707031 22.15625 -2.773438 22.15625 -2.890625 L 22.15625 -28.671875 C 22.15625 -28.816406 22.082031 -28.890625 21.9375 -28.890625 Z M 3.015625 -1.515625 C 3.015625 -1.367188 3.085938 -1.296875 3.234375 -1.296875 L 21.03125 -1.296875 C 21.238281 -1.296875 21.285156 -1.378906 21.171875 -1.546875 L 3.28125 -27.375 C 3.21875 -27.457031 3.15625 -27.488281 3.09375 -27.46875 C 3.039062 -27.457031 3.015625 -27.394531 3.015625 -27.28125 Z M 3.015625 -1.515625 "/>
</symbol>
<symbol overflow="visible" id="glyph0-1">
<path style="stroke:none;" d="M 6.59375 -9.1875 C 7.976562 -7.457031 9.429688 -6.117188 10.953125 -5.171875 C 12.472656 -4.222656 14.382812 -3.75 16.6875 -3.75 C 17.863281 -3.75 19 -3.910156 20.09375 -4.234375 C 21.1875 -4.566406 22.078125 -5.054688 22.765625 -5.703125 C 23.453125 -6.359375 23.796875 -7.171875 23.796875 -8.140625 C 23.796875 -9.578125 23.078125 -10.632812 21.640625 -11.3125 C 20.203125 -11.988281 18.191406 -12.53125 15.609375 -12.9375 C 12.359375 -13.476562 9.773438 -14.445312 7.859375 -15.84375 C 5.953125 -17.238281 5 -19.285156 5 -21.984375 C 5 -23.765625 5.53125 -25.300781 6.59375 -26.59375 C 7.65625 -27.882812 9.0625 -28.875 10.8125 -29.5625 C 12.570312 -30.257812 14.5 -30.609375 16.59375 -30.609375 C 19.238281 -30.609375 21.53125 -30.144531 23.46875 -29.21875 C 25.414062 -28.300781 26.929688 -27 28.015625 -25.3125 L 24.828125 -21.984375 C 23.910156 -23.304688 22.753906 -24.375 21.359375 -25.1875 C 19.960938 -26.007812 18.332031 -26.421875 16.46875 -26.421875 C 14.601562 -26.421875 13.03125 -26.054688 11.75 -25.328125 C 10.46875 -24.597656 9.828125 -23.570312 9.828125 -22.25 C 9.828125 -20.71875 10.5 -19.625 11.84375 -18.96875 C 13.195312 -18.3125 15 -17.796875 17.25 -17.421875 C 18.707031 -17.191406 20.113281 -16.875 21.46875 -16.46875 C 22.820312 -16.0625 24.035156 -15.535156 25.109375 -14.890625 C 26.191406 -14.242188 27.046875 -13.453125 27.671875 -12.515625 C 28.304688 -11.585938 28.625 -10.445312 28.625 -9.09375 C 28.625 -7.164062 28.128906 -5.488281 27.140625 -4.0625 C 26.148438 -2.644531 24.734375 -1.539062 22.890625 -0.75 C 21.046875 0.0390625 18.875 0.4375 16.375 0.4375 C 13.738281 0.4375 11.34375 -0.0195312 9.1875 -0.9375 C 7.03125 -1.863281 5.128906 -3.363281 3.484375 -5.4375 Z M 6.59375 -9.1875 "/>
</symbol>
<symbol overflow="visible" id="glyph0-2">
<path style="stroke:none;" d="M 30.953125 -4.015625 C 30.265625 -3.316406 29.320312 -2.628906 28.125 -1.953125 C 26.9375 -1.285156 25.566406 -0.71875 24.015625 -0.25 C 22.460938 0.207031 20.804688 0.4375 19.046875 0.4375 C 16.867188 0.4375 14.832031 0.0703125 12.9375 -0.65625 C 11.039062 -1.394531 9.378906 -2.4375 7.953125 -3.78125 C 6.523438 -5.132812 5.414062 -6.765625 4.625 -8.671875 C 3.84375 -10.585938 3.453125 -12.726562 3.453125 -15.09375 C 3.453125 -17.300781 3.867188 -19.335938 4.703125 -21.203125 C 5.535156 -23.078125 6.691406 -24.703125 8.171875 -26.078125 C 9.648438 -27.460938 11.335938 -28.535156 13.234375 -29.296875 C 15.128906 -30.054688 17.140625 -30.4375 19.265625 -30.4375 C 21.046875 -30.4375 22.71875 -30.179688 24.28125 -29.671875 C 25.851562 -29.171875 27.25 -28.53125 28.46875 -27.75 C 29.695312 -26.976562 30.671875 -26.164062 31.390625 -25.3125 L 28.40625 -21.765625 C 27.144531 -22.941406 25.742188 -23.910156 24.203125 -24.671875 C 22.671875 -25.441406 20.96875 -25.828125 19.09375 -25.828125 C 17.257812 -25.828125 15.507812 -25.394531 13.84375 -24.53125 C 12.175781 -23.664062 10.816406 -22.425781 9.765625 -20.8125 C 8.710938 -19.207031 8.1875 -17.300781 8.1875 -15.09375 C 8.1875 -12.675781 8.722656 -10.660156 9.796875 -9.046875 C 10.878906 -7.441406 12.289062 -6.226562 14.03125 -5.40625 C 15.769531 -4.59375 17.644531 -4.1875 19.65625 -4.1875 C 21.695312 -4.1875 23.460938 -4.578125 24.953125 -5.359375 C 26.453125 -6.148438 27.691406 -6.976562 28.671875 -7.84375 Z M 30.953125 -4.015625 "/>
</symbol>
<symbol overflow="visible" id="glyph0-3">
<path style="stroke:none;" d="M 35.78125 -15.09375 C 35.78125 -12.90625 35.382812 -10.867188 34.59375 -8.984375 C 33.800781 -7.109375 32.679688 -5.460938 31.234375 -4.046875 C 29.785156 -2.640625 28.078125 -1.539062 26.109375 -0.75 C 24.140625 0.0390625 21.972656 0.4375 19.609375 0.4375 C 17.253906 0.4375 15.082031 0.0390625 13.09375 -0.75 C 11.113281 -1.539062 9.40625 -2.640625 7.96875 -4.046875 C 6.53125 -5.460938 5.414062 -7.109375 4.625 -8.984375 C 3.84375 -10.867188 3.453125 -12.90625 3.453125 -15.09375 C 3.453125 -17.269531 3.84375 -19.300781 4.625 -21.1875 C 5.414062 -23.070312 6.53125 -24.71875 7.96875 -26.125 C 9.40625 -27.53125 11.113281 -28.628906 13.09375 -29.421875 C 15.082031 -30.210938 17.253906 -30.609375 19.609375 -30.609375 C 21.972656 -30.609375 24.140625 -30.210938 26.109375 -29.421875 C 28.078125 -28.628906 29.785156 -27.53125 31.234375 -26.125 C 32.679688 -24.71875 33.800781 -23.070312 34.59375 -21.1875 C 35.382812 -19.300781 35.78125 -17.269531 35.78125 -15.09375 Z M 31.03125 -15.09375 C 31.03125 -17.1875 30.539062 -19.054688 29.5625 -20.703125 C 28.59375 -22.359375 27.242188 -23.664062 25.515625 -24.625 C 23.796875 -25.59375 21.828125 -26.078125 19.609375 -26.078125 C 17.335938 -26.078125 15.347656 -25.59375 13.640625 -24.625 C 11.929688 -23.664062 10.59375 -22.359375 9.625 -20.703125 C 8.664062 -19.054688 8.1875 -17.1875 8.1875 -15.09375 C 8.1875 -12.988281 8.664062 -11.109375 9.625 -9.453125 C 10.59375 -7.804688 11.929688 -6.5 13.640625 -5.53125 C 15.347656 -4.570312 17.335938 -4.09375 19.609375 -4.09375 C 21.828125 -4.09375 23.796875 -4.570312 25.515625 -5.53125 C 27.242188 -6.5 28.59375 -7.816406 29.5625 -9.484375 C 30.539062 -11.148438 31.03125 -13.019531 31.03125 -15.09375 Z M 31.03125 -15.09375 "/>
</symbol>
<symbol overflow="visible" id="glyph0-4">
<path style="stroke:none;" d="M 30.046875 -20.6875 C 30.046875 -18.738281 29.457031 -16.960938 28.28125 -15.359375 C 27.101562 -13.765625 25.59375 -12.609375 23.75 -11.890625 L 31.515625 0.046875 L 25.78125 0 L 18.578125 -11.25 L 10.34375 -11.25 L 10.34375 0 L 5.6875 0 L 5.6875 -30.171875 L 20.4375 -30.171875 C 22.070312 -30.171875 23.617188 -29.773438 25.078125 -28.984375 C 26.546875 -28.203125 27.738281 -27.09375 28.65625 -25.65625 C 29.582031 -24.21875 30.046875 -22.5625 30.046875 -20.6875 Z M 19.4375 -25.6875 L 10.34375 -25.6875 L 10.34375 -15.734375 L 20.171875 -15.734375 C 21.179688 -15.734375 22.066406 -15.960938 22.828125 -16.421875 C 23.585938 -16.878906 24.175781 -17.488281 24.59375 -18.25 C 25.007812 -19.019531 25.21875 -19.847656 25.21875 -20.734375 C 25.21875 -21.710938 24.957031 -22.570312 24.4375 -23.3125 C 23.925781 -24.0625 23.226562 -24.644531 22.34375 -25.0625 C 21.46875 -25.476562 20.5 -25.6875 19.4375 -25.6875 Z M 19.4375 -25.6875 "/>
</symbol>
<symbol overflow="visible" id="glyph0-5">
<path style="stroke:none;" d="M 5.6875 -30.171875 L 27.109375 -30.171875 L 27.109375 -25.6875 L 10.34375 -25.6875 L 10.34375 -17.71875 L 24.75 -17.71875 L 24.75 -13.234375 L 10.34375 -13.234375 L 10.34375 -4.484375 L 27.109375 -4.484375 L 27.109375 0 L 5.6875 0 Z M 5.6875 -30.171875 "/>
</symbol>
<symbol overflow="visible" id="glyph0-6">
<path style="stroke:none;" d="M 19.828125 -30.171875 C 23.109375 -30.171875 25.582031 -29.523438 27.25 -28.234375 C 28.914062 -26.941406 29.75 -25.0625 29.75 -22.59375 C 29.75 -21.238281 29.390625 -20.019531 28.671875 -18.9375 C 27.953125 -17.863281 26.898438 -17.039062 25.515625 -16.46875 C 26.554688 -16.125 27.515625 -15.632812 28.390625 -15 C 29.265625 -14.363281 29.972656 -13.539062 30.515625 -12.53125 C 31.066406 -11.53125 31.34375 -10.3125 31.34375 -8.875 C 31.34375 -7.125 31.019531 -5.671875 30.375 -4.515625 C 29.726562 -3.367188 28.867188 -2.460938 27.796875 -1.796875 C 26.734375 -1.140625 25.570312 -0.675781 24.3125 -0.40625 C 23.050781 -0.132812 21.785156 0 20.515625 0 L 5.6875 0 L 5.6875 -30.171875 Z M 19.484375 -25.6875 L 10.34375 -25.6875 L 10.34375 -17.765625 L 20 -17.765625 C 21.320312 -17.785156 22.484375 -18.140625 23.484375 -18.828125 C 24.492188 -19.523438 25 -20.503906 25 -21.765625 C 25 -23.171875 24.46875 -24.175781 23.40625 -24.78125 C 22.34375 -25.382812 21.035156 -25.6875 19.484375 -25.6875 Z M 20.21875 -13.28125 L 10.34375 -13.28125 L 10.34375 -4.484375 L 20.4375 -4.484375 C 22.25 -4.484375 23.726562 -4.847656 24.875 -5.578125 C 26.019531 -6.316406 26.59375 -7.445312 26.59375 -8.96875 C 26.59375 -10.0625 26.257812 -10.921875 25.59375 -11.546875 C 24.9375 -12.179688 24.117188 -12.628906 23.140625 -12.890625 C 22.171875 -13.148438 21.195312 -13.28125 20.21875 -13.28125 Z M 20.21875 -13.28125 "/>
</symbol>
<symbol overflow="visible" id="glyph0-7">
<path style="stroke:none;" d="M 27.9375 0 L 24.828125 -7.328125 L 10.171875 -7.328125 L 7.03125 0 L 2.234375 0 L 15.125 -30.171875 L 20.171875 -30.171875 L 32.984375 0 Z M 15.171875 -19.046875 L 12.078125 -11.8125 L 22.9375 -11.8125 L 19.75 -19.234375 C 19.375 -20.179688 19 -21.148438 18.625 -22.140625 C 18.25 -23.128906 17.875 -24.15625 17.5 -25.21875 C 17.101562 -24.125 16.71875 -23.0625 16.34375 -22.03125 C 15.96875 -21 15.578125 -20.003906 15.171875 -19.046875 Z M 15.171875 -19.046875 "/>
</symbol>
<symbol overflow="visible" id="glyph0-8">
<path style="stroke:none;" d="M 10.34375 0 L 5.6875 0 L 5.6875 -30.171875 L 10.34375 -30.171875 L 10.34375 -14.75 L 16.46875 -20.171875 L 27.546875 -30.171875 L 34.015625 -30.171875 L 19.921875 -17.796875 L 33.921875 0 L 27.9375 0 L 16.515625 -14.75 L 10.34375 -9.3125 Z M 10.34375 0 "/>
</symbol>
</g>
<clipPath id="clip1">
  <path d="M 158 78.808594 L 217.800781 78.808594 L 217.800781 183.808594 L 158 183.808594 Z M 158 78.808594 "/>
</clipPath>
</defs>
<g id="surface1">
<g style="fill:rgb(0%,0%,0%);fill-opacity:1;">
  <use xlink:href="#glyph0-1" x="13.621584" y="283.018422"/>
  <use xlink:href="#glyph0-2" x="45.862472" y="283.018422"/>
  <use xlink:href="#glyph0-3" x="80.344706" y="283.018422"/>
</g>
<g style="fill:rgb(0%,0%,0%);fill-opacity:1;">
  <use xlink:href="#glyph0-4" x="119.568243" y="283.018422"/>
</g>
<g style="fill:rgb(0%,0%,0%);fill-opacity:1;">
  <use xlink:href="#glyph0-5" x="154.955634" y="283.018422"/>
  <use xlink:href="#glyph0-6" x="186.765495" y="283.018422"/>
</g>
<g style="fill:rgb(0%,0%,0%);fill-opacity:1;">
  <use xlink:href="#glyph0-4" x="221.549439" y="283.018422"/>
</g>
<g style="fill:rgb(0%,0%,0%);fill-opacity:1;">
  <use xlink:href="#glyph0-5" x="256.936842" y="283.018422"/>
  <use xlink:href="#glyph0-7" x="288.746702" y="283.018422"/>
</g>
<g style="fill:rgb(0%,0%,0%);fill-opacity:1;">
  <use xlink:href="#glyph0-8" x="323.961697" y="283.018422"/>
</g>
<path style=" stroke:none;fill-rule:nonzero;fill:rgb(33.729553%,78.039551%,100%);fill-opacity:1;" d="M 187.5 37.5 C 185.964844 37.5 184.433594 37.539062 182.898438 37.613281 C 181.367188 37.6875 179.835938 37.800781 178.3125 37.953125 C 176.785156 38.101562 175.261719 38.289062 173.742188 38.515625 C 172.226562 38.738281 170.714844 39.003906 169.210938 39.300781 C 167.707031 39.601562 166.207031 39.9375 164.71875 40.308594 C 163.230469 40.683594 161.753906 41.089844 160.285156 41.535156 C 158.816406 41.980469 157.359375 42.464844 155.917969 42.980469 C 154.472656 43.496094 153.039062 44.050781 151.625 44.636719 C 150.207031 45.222656 148.804688 45.84375 147.417969 46.5 C 146.03125 47.15625 144.660156 47.847656 143.304688 48.570312 C 141.953125 49.292969 140.617188 50.050781 139.304688 50.839844 C 137.988281 51.625 136.691406 52.449219 135.414062 53.300781 C 134.140625 54.152344 132.886719 55.035156 131.652344 55.949219 C 130.421875 56.863281 129.210938 57.808594 128.027344 58.78125 C 126.839844 59.753906 125.679688 60.753906 124.542969 61.785156 C 123.40625 62.816406 122.292969 63.875 121.207031 64.957031 C 120.125 66.042969 119.066406 67.15625 118.035156 68.292969 C 117.003906 69.429688 116.003906 70.589844 115.03125 71.777344 C 114.058594 72.960938 113.113281 74.171875 112.199219 75.402344 C 111.285156 76.636719 110.402344 77.890625 109.550781 79.164062 C 108.699219 80.441406 107.875 81.738281 107.089844 83.054688 C 106.300781 84.367188 105.542969 85.703125 104.820312 87.054688 C 104.097656 88.410156 103.40625 89.78125 102.75 91.167969 C 102.09375 92.554688 101.472656 93.957031 100.886719 95.375 C 100.300781 96.789062 99.746094 98.222656 99.230469 99.667969 C 98.714844 101.109375 98.230469 102.566406 97.785156 104.035156 C 97.339844 105.503906 96.933594 106.980469 96.558594 108.46875 C 96.1875 109.957031 95.851562 111.457031 95.550781 112.960938 C 95.253906 114.464844 94.988281 115.976562 94.765625 117.492188 C 94.539062 119.011719 94.351562 120.535156 94.203125 122.0625 C 94.050781 123.585938 93.9375 125.117188 93.863281 126.648438 C 93.789062 128.183594 93.75 129.714844 93.75 131.25 C 93.75 132.785156 93.789062 134.316406 93.863281 135.851562 C 93.9375 137.382812 94.050781 138.914062 94.203125 140.4375 C 94.351562 141.964844 94.539062 143.488281 94.765625 145.007812 C 94.988281 146.523438 95.253906 148.035156 95.550781 149.539062 C 95.851562 151.042969 96.1875 152.542969 96.558594 154.03125 C 96.933594 155.519531 97.339844 156.996094 97.785156 158.464844 C 98.230469 159.933594 98.714844 161.390625 99.230469 162.832031 C 99.746094 164.277344 100.300781 165.710938 100.886719 167.125 C 101.472656 168.542969 102.09375 169.945312 102.75 171.332031 C 103.40625 172.71875 104.097656 174.089844 104.820312 175.445312 C 105.542969 176.796875 106.300781 178.132812 107.089844 179.445312 C 107.875 180.761719 108.699219 182.058594 109.550781 183.335938 C 110.402344 184.609375 111.285156 185.863281 112.199219 187.097656 C 113.113281 188.328125 114.058594 189.539062 115.03125 190.722656 C 116.003906 191.910156 117.003906 193.070312 118.035156 194.207031 C 119.066406 195.34375 120.125 196.457031 121.207031 197.542969 C 122.292969 198.625 123.40625 199.683594 124.542969 200.714844 C 125.679688 201.746094 126.839844 202.746094 128.027344 203.71875 C 129.210938 204.691406 130.421875 205.636719 131.652344 206.550781 C 132.886719 207.464844 134.140625 208.347656 135.414062 209.199219 C 136.691406 210.050781 137.988281 210.875 139.304688 211.660156 C 140.617188 212.449219 141.953125 213.207031 143.304688 213.929688 C 144.660156 214.652344 146.03125 215.34375 147.417969 216 C 148.804688 216.65625 150.207031 217.277344 151.625 217.863281 C 153.039062 218.449219 154.472656 219.003906 155.917969 219.519531 C 157.359375 220.035156 158.816406 220.519531 160.285156 220.964844 C 161.753906 221.410156 163.230469 221.816406 164.71875 222.191406 C 166.207031 222.5625 167.707031 222.898438 169.210938 223.199219 C 170.714844 223.496094 172.226562 223.761719 173.742188 223.984375 C 175.261719 224.210938 176.785156 224.398438 178.3125 224.546875 C 179.835938 224.699219 181.367188 224.8125 182.898438 224.886719 C 184.433594 224.960938 185.964844 225 187.5 225 C 189.035156 225 190.566406 224.960938 192.101562 224.886719 C 193.632812 224.8125 195.164062 224.699219 196.6875 224.546875 C 198.214844 224.398438 199.738281 224.210938 201.257812 223.984375 C 202.773438 223.761719 204.285156 223.496094 205.789062 223.199219 C 207.292969 222.898438 208.792969 222.5625 210.28125 222.191406 C 211.769531 221.816406 213.246094 221.410156 214.714844 220.964844 C 216.183594 220.519531 217.640625 220.035156 219.082031 219.519531 C 220.527344 219.003906 221.960938 218.449219 223.375 217.863281 C 224.792969 217.277344 226.195312 216.65625 227.582031 216 C 228.96875 215.34375 230.339844 214.652344 231.695312 213.929688 C 233.046875 213.207031 234.382812 212.449219 235.695312 211.660156 C 237.011719 210.875 238.308594 210.050781 239.585938 209.199219 C 240.859375 208.347656 242.113281 207.464844 243.347656 206.550781 C 244.578125 205.636719 245.789062 204.691406 246.972656 203.71875 C 248.160156 202.746094 249.320312 201.746094 250.457031 200.714844 C 251.59375 199.683594 252.707031 198.625 253.792969 197.542969 C 254.875 196.457031 255.933594 195.34375 256.964844 194.207031 C 257.996094 193.070312 258.996094 191.910156 259.96875 190.722656 C 260.941406 189.539062 261.886719 188.328125 262.800781 187.097656 C 263.714844 185.863281 264.597656 184.609375 265.449219 183.335938 C 266.300781 182.058594 267.125 180.761719 267.910156 179.445312 C 268.699219 178.132812 269.457031 176.796875 270.179688 175.445312 C 270.902344 174.089844 271.59375 172.71875 272.25 171.332031 C 272.90625 169.945312 273.527344 168.542969 274.113281 167.125 C 274.699219 165.710938 275.253906 164.277344 275.769531 162.832031 C 276.285156 161.390625 276.769531 159.933594 277.214844 158.464844 C 277.660156 156.996094 278.066406 155.519531 278.441406 154.03125 C 278.8125 152.542969 279.148438 151.042969 279.449219 149.539062 C 279.746094 148.035156 280.011719 146.523438 280.234375 145.007812 C 280.460938 143.488281 280.648438 141.964844 280.796875 140.4375 C 280.949219 138.914062 281.0625 137.382812 281.136719 135.851562 C 281.210938 134.316406 281.25 132.785156 281.25 131.25 C 281.25 129.714844 281.210938 128.183594 281.136719 126.648438 C 281.0625 125.117188 280.949219 123.585938 280.796875 122.0625 C 280.648438 120.535156 280.460938 119.011719 280.234375 117.492188 C 280.011719 115.976562 279.746094 114.464844 279.449219 112.960938 C 279.148438 111.457031 278.8125 109.957031 278.441406 108.46875 C 278.066406 106.980469 277.660156 105.503906 277.214844 104.035156 C 276.769531 102.566406 276.285156 101.109375 275.769531 99.667969 C 275.253906 98.222656 274.699219 96.789062 274.113281 95.375 C 273.527344 93.957031 272.90625 92.554688 272.25 91.167969 C 271.59375 89.78125 270.902344 88.410156 270.179688 87.054688 C 269.457031 85.703125 268.699219 84.367188 267.910156 83.054688 C 267.125 81.738281 266.300781 80.441406 265.449219 79.164062 C 264.597656 77.890625 263.714844 76.636719 262.800781 75.402344 C 261.886719 74.171875 260.941406 72.960938 259.96875 71.777344 C 258.996094 70.589844 257.996094 69.429688 256.964844 68.292969 C 255.933594 67.15625 254.875 66.042969 253.792969 64.957031 C 252.707031 63.875 251.59375 62.816406 250.457031 61.785156 C 249.320312 60.753906 248.160156 59.753906 246.972656 58.78125 C 245.789062 57.808594 244.578125 56.863281 243.347656 55.949219 C 242.113281 55.035156 240.859375 54.152344 239.585938 53.300781 C 238.308594 52.449219 237.011719 51.625 235.695312 50.839844 C 234.382812 50.050781 233.046875 49.292969 231.695312 48.570312 C 230.339844 47.847656 228.96875 47.15625 227.582031 46.5 C 226.195312 45.84375 224.792969 45.222656 223.375 44.636719 C 221.960938 44.050781 220.527344 43.496094 219.082031 42.980469 C 217.640625 42.464844 216.183594 41.980469 214.714844 41.535156 C 213.246094 41.089844 211.769531 40.683594 210.28125 40.308594 C 208.792969 39.9375 207.292969 39.601562 205.789062 39.300781 C 204.285156 39.003906 202.773438 38.738281 201.257812 38.515625 C 199.738281 38.289062 198.214844 38.101562 196.6875 37.953125 C 195.164062 37.800781 193.632812 37.6875 192.101562 37.613281 C 190.566406 37.539062 189.035156 37.5 187.5 37.5 Z M 187.5 37.5 "/>
<g clip-path="url(#clip1)" clip-rule="nonzero">
<path style=" stroke:none;fill-rule:nonzero;fill:rgb(100%,100%,100%);fill-opacity:1;" d="M 217.800781 131.285156 C 217.800781 129.402344 217.082031 127.519531 215.65625 126.09375 L 170.613281 80.925781 C 167.742188 78.046875 163.097656 78.046875 160.234375 80.925781 C 157.367188 83.796875 157.367188 88.457031 160.234375 91.328125 L 200.089844 131.285156 L 160.238281 171.25 C 157.375 174.121094 157.375 178.78125 160.238281 181.652344 C 163.105469 184.523438 167.75 184.523438 170.613281 181.652344 L 215.65625 136.488281 C 217.089844 135.058594 217.800781 133.167969 217.800781 131.285156 Z M 217.800781 131.285156 "/>
</g>
</g>
</svg>
